<?xml version="1.0" standalone="no"?>
<!DOCTYPE svg PUBLIC "-//W3C//DTD SVG 20010904//EN"
 "http://www.w3.org/TR/2001/REC-SVG-20010904/DTD/svg10.dtd">
<svg version="1.0" xmlns="http://www.w3.org/2000/svg"
 width="280.000000pt" height="280.000000pt" viewBox="0 0 280.000000 280.000000"
 preserveAspectRatio="xMidYMid meet">
<metadata>
Created by potrace 1.14, written by Peter Selinger 2001-2017
</metadata>
<g transform="translate(0.000000,280.000000) scale(0.100000,-0.100000)"
fill="#000000" stroke="none">
<path d="M1041 2762 c-26 -49 -941 -2016 -941 -2023 0 -12 45 -34 480 -237
565 -263 608 -276 885 -276 163 0 189 3 280 27 396 107 688 414 807 849 20 73
23 105 22 263 0 166 -3 187 -28 270 -90 298 -292 550 -562 701 -67 37 -476
233 -634 304 -47 21 -133 61 -192 88 -97 46 -109 49 -117 34z m445 -672 c287
-136 348 -173 435 -266 138 -148 190 -356 139 -559 -94 -380 -378 -617 -700
-584 -132 13 -209 41 -502 184 l-117 57 12 28 c73 171 565 1209 573 1210 6 0
78 -32 160 -70z"/>
</g>
</svg>
